<?xml version="1.0" encoding="utf-8" standalone="no"?>
<!DOCTYPE svg PUBLIC "-//W3C//DTD SVG 1.1//EN"
  "http://www.w3.org/Graphics/SVG/1.1/DTD/svg11.dtd">
<svg xmlns:xlink="http://www.w3.org/1999/xlink" width="502.470666pt" height="293.5125pt" viewBox="0 0 502.470666 293.5125" xmlns="http://www.w3.org/2000/svg" version="1.1">
 <metadata>
  <rdf:RDF xmlns:dc="http://purl.org/dc/elements/1.1/" xmlns:cc="http://creativecommons.org/ns#" xmlns:rdf="http://www.w3.org/1999/02/22-rdf-syntax-ns#">
   <cc:Work>
    <dc:type rdf:resource="http://purl.org/dc/dcmitype/StillImage"/>
    <dc:date>2026-06-07T23:19:28.111904</dc:date>
    <dc:format>image/svg+xml</dc:format>
    <dc:creator>
     <cc:Agent>
      <dc:title>Matplotlib v3.10.8, https://matplotlib.org/</dc:title>
     </cc:Agent>
    </dc:creator>
   </cc:Work>
  </rdf:RDF>
 </metadata>
 <defs>
  <style type="text/css">*{stroke-linejoin: round; stroke-linecap: butt}</style>
 </defs>
 <g id="figure_1">
  <g id="patch_1">
   <path d="M 0 293.5125 
L 502.470666 293.5125 
L 502.470666 0 
L 0 0 
z
" style="fill: #ffffff"/>
  </g>
  <g id="axes_1">
   <g id="patch_2">
    <path d="M 130.689063 255.878125 
L 446.163563 255.878125 
L 446.163563 26.318125 
L 130.689063 26.318125 
z
" style="fill: #ffffff"/>
   </g>
   <g id="matplotlib.axis_1">
    <g id="xtick_1">
     <g id="line2d_1">
      <path d="M 130.689063 255.878125 
L 130.689063 26.318125 
" clip-path="url(#p38c54ed2ba)" style="fill: none; stroke-dasharray: 0.7,1.155; stroke-dashoffset: 0; stroke: #b0b0b0; stroke-opacity: 0.45; stroke-width: 0.7"/>
     </g>
     <g id="line2d_2">
      <defs>
       <path id="mf497b3cbe7" d="M 0 0 
L 0 3.5 
" style="stroke: #000000; stroke-width: 0.8"/>
      </defs>
      <g>
       <use xlink:href="#mf497b3cbe7" x="130.689063" y="255.878125" style="stroke: #000000; stroke-width: 0.8"/>
      </g>
     </g>
     <g id="text_1">
      <!-- 80.0 -->
      <g transform="translate(118.353125 270.476562) scale(0.1 -0.1)">
       <defs>
        <path id="DejaVuSans-Bold-38" d="M 2228 2088 
Q 1891 2088 1709 1903 
Q 1528 1719 1528 1375 
Q 1528 1031 1709 848 
Q 1891 666 2228 666 
Q 2563 666 2741 848 
Q 2919 1031 2919 1375 
Q 2919 1722 2741 1905 
Q 2563 2088 2228 2088 
z
M 1350 2484 
Q 925 2613 709 2878 
Q 494 3144 494 3541 
Q 494 4131 934 4440 
Q 1375 4750 2228 4750 
Q 3075 4750 3515 4442 
Q 3956 4134 3956 3541 
Q 3956 3144 3739 2878 
Q 3522 2613 3097 2484 
Q 3572 2353 3814 2058 
Q 4056 1763 4056 1313 
Q 4056 619 3595 264 
Q 3134 -91 2228 -91 
Q 1319 -91 855 264 
Q 391 619 391 1313 
Q 391 1763 633 2058 
Q 875 2353 1350 2484 
z
M 1631 3419 
Q 1631 3141 1786 2991 
Q 1941 2841 2228 2841 
Q 2509 2841 2662 2991 
Q 2816 3141 2816 3419 
Q 2816 3697 2662 3845 
Q 2509 3994 2228 3994 
Q 1941 3994 1786 3844 
Q 1631 3694 1631 3419 
z
" transform="scale(0.015625)"/>
        <path id="DejaVuSans-Bold-30" d="M 2944 2338 
Q 2944 3213 2780 3570 
Q 2616 3928 2228 3928 
Q 1841 3928 1675 3570 
Q 1509 3213 1509 2338 
Q 1509 1453 1675 1090 
Q 1841 728 2228 728 
Q 2613 728 2778 1090 
Q 2944 1453 2944 2338 
z
M 4147 2328 
Q 4147 1169 3647 539 
Q 3147 -91 2228 -91 
Q 1306 -91 806 539 
Q 306 1169 306 2328 
Q 306 3491 806 4120 
Q 1306 4750 2228 4750 
Q 3147 4750 3647 4120 
Q 4147 3491 4147 2328 
z
" transform="scale(0.015625)"/>
        <path id="DejaVuSans-Bold-2e" d="M 653 1209 
L 1778 1209 
L 1778 0 
L 653 0 
L 653 1209 
z
" transform="scale(0.015625)"/>
       </defs>
       <use xlink:href="#DejaVuSans-Bold-38"/>
       <use xlink:href="#DejaVuSans-Bold-30" transform="translate(69.580078 0)"/>
       <use xlink:href="#DejaVuSans-Bold-2e" transform="translate(139.160156 0)"/>
       <use xlink:href="#DejaVuSans-Bold-30" transform="translate(177.148438 0)"/>
      </g>
     </g>
    </g>
    <g id="xtick_2">
     <g id="line2d_3">
      <path d="M 170.123375 255.878125 
L 170.123375 26.318125 
" clip-path="url(#p38c54ed2ba)" style="fill: none; stroke-dasharray: 0.7,1.155; stroke-dashoffset: 0; stroke: #b0b0b0; stroke-opacity: 0.45; stroke-width: 0.7"/>
     </g>
     <g id="line2d_4">
      <g>
       <use xlink:href="#mf497b3cbe7" x="170.123375" y="255.878125" style="stroke: #000000; stroke-width: 0.8"/>
      </g>
     </g>
     <g id="text_2">
      <!-- 82.5 -->
      <g transform="translate(157.787438 270.476562) scale(0.1 -0.1)">
       <defs>
        <path id="DejaVuSans-Bold-32" d="M 1844 884 
L 3897 884 
L 3897 0 
L 506 0 
L 506 884 
L 2209 2388 
Q 2438 2594 2547 2791 
Q 2656 2988 2656 3200 
Q 2656 3528 2436 3728 
Q 2216 3928 1850 3928 
Q 1569 3928 1234 3808 
Q 900 3688 519 3450 
L 519 4475 
Q 925 4609 1322 4679 
Q 1719 4750 2100 4750 
Q 2938 4750 3402 4381 
Q 3866 4013 3866 3353 
Q 3866 2972 3669 2642 
Q 3472 2313 2841 1759 
L 1844 884 
z
" transform="scale(0.015625)"/>
        <path id="DejaVuSans-Bold-35" d="M 678 4666 
L 3669 4666 
L 3669 3781 
L 1638 3781 
L 1638 3059 
Q 1775 3097 1914 3117 
Q 2053 3138 2203 3138 
Q 3056 3138 3531 2711 
Q 4006 2284 4006 1522 
Q 4006 766 3489 337 
Q 2972 -91 2053 -91 
Q 1656 -91 1267 -14 
Q 878 63 494 219 
L 494 1166 
Q 875 947 1217 837 
Q 1559 728 1863 728 
Q 2300 728 2551 942 
Q 2803 1156 2803 1522 
Q 2803 1891 2551 2103 
Q 2300 2316 1863 2316 
Q 1603 2316 1309 2248 
Q 1016 2181 678 2041 
L 678 4666 
z
" transform="scale(0.015625)"/>
       </defs>
       <use xlink:href="#DejaVuSans-Bold-38"/>
       <use xlink:href="#DejaVuSans-Bold-32" transform="translate(69.580078 0)"/>
       <use xlink:href="#DejaVuSans-Bold-2e" transform="translate(139.160156 0)"/>
       <use xlink:href="#DejaVuSans-Bold-35" transform="translate(177.148438 0)"/>
      </g>
     </g>
    </g>
    <g id="xtick_3">
     <g id="line2d_5">
      <path d="M 209.557688 255.878125 
L 209.557688 26.318125 
" clip-path="url(#p38c54ed2ba)" style="fill: none; stroke-dasharray: 0.7,1.155; stroke-dashoffset: 0; stroke: #b0b0b0; stroke-opacity: 0.45; stroke-width: 0.7"/>
     </g>
     <g id="line2d_6">
      <g>
       <use xlink:href="#mf497b3cbe7" x="209.557688" y="255.878125" style="stroke: #000000; stroke-width: 0.8"/>
      </g>
     </g>
     <g id="text_3">
      <!-- 85.0 -->
      <g transform="translate(197.22175 270.476562) scale(0.1 -0.1)">
       <use xlink:href="#DejaVuSans-Bold-38"/>
       <use xlink:href="#DejaVuSans-Bold-35" transform="translate(69.580078 0)"/>
       <use xlink:href="#DejaVuSans-Bold-2e" transform="translate(139.160156 0)"/>
       <use xlink:href="#DejaVuSans-Bold-30" transform="translate(177.148438 0)"/>
      </g>
     </g>
    </g>
    <g id="xtick_4">
     <g id="line2d_7">
      <path d="M 248.992 255.878125 
L 248.992 26.318125 
" clip-path="url(#p38c54ed2ba)" style="fill: none; stroke-dasharray: 0.7,1.155; stroke-dashoffset: 0; stroke: #b0b0b0; stroke-opacity: 0.45; stroke-width: 0.7"/>
     </g>
     <g id="line2d_8">
      <g>
       <use xlink:href="#mf497b3cbe7" x="248.992" y="255.878125" style="stroke: #000000; stroke-width: 0.8"/>
      </g>
     </g>
     <g id="text_4">
      <!-- 87.5 -->
      <g transform="translate(236.656063 270.476562) scale(0.1 -0.1)">
       <defs>
        <path id="DejaVuSans-Bold-37" d="M 428 4666 
L 3944 4666 
L 3944 3988 
L 2125 0 
L 953 0 
L 2675 3781 
L 428 3781 
L 428 4666 
z
" transform="scale(0.015625)"/>
       </defs>
       <use xlink:href="#DejaVuSans-Bold-38"/>
       <use xlink:href="#DejaVuSans-Bold-37" transform="translate(69.580078 0)"/>
       <use xlink:href="#DejaVuSans-Bold-2e" transform="translate(139.160156 0)"/>
       <use xlink:href="#DejaVuSans-Bold-35" transform="translate(177.148438 0)"/>
      </g>
     </g>
    </g>
    <g id="xtick_5">
     <g id="line2d_9">
      <path d="M 288.426313 255.878125 
L 288.426313 26.318125 
" clip-path="url(#p38c54ed2ba)" style="fill: none; stroke-dasharray: 0.7,1.155; stroke-dashoffset: 0; stroke: #b0b0b0; stroke-opacity: 0.45; stroke-width: 0.7"/>
     </g>
     <g id="line2d_10">
      <g>
       <use xlink:href="#mf497b3cbe7" x="288.426313" y="255.878125" style="stroke: #000000; stroke-width: 0.8"/>
      </g>
     </g>
     <g id="text_5">
      <!-- 90.0 -->
      <g transform="translate(276.090375 270.476562) scale(0.1 -0.1)">
       <defs>
        <path id="DejaVuSans-Bold-39" d="M 641 103 
L 641 966 
Q 928 831 1190 764 
Q 1453 697 1709 697 
Q 2247 697 2547 995 
Q 2847 1294 2900 1881 
Q 2688 1725 2447 1647 
Q 2206 1569 1925 1569 
Q 1209 1569 770 1986 
Q 331 2403 331 3084 
Q 331 3838 820 4291 
Q 1309 4744 2131 4744 
Q 3044 4744 3544 4128 
Q 4044 3513 4044 2388 
Q 4044 1231 3459 570 
Q 2875 -91 1856 -91 
Q 1528 -91 1228 -42 
Q 928 6 641 103 
z
M 2125 2350 
Q 2441 2350 2600 2554 
Q 2759 2759 2759 3169 
Q 2759 3575 2600 3781 
Q 2441 3988 2125 3988 
Q 1809 3988 1650 3781 
Q 1491 3575 1491 3169 
Q 1491 2759 1650 2554 
Q 1809 2350 2125 2350 
z
" transform="scale(0.015625)"/>
       </defs>
       <use xlink:href="#DejaVuSans-Bold-39"/>
       <use xlink:href="#DejaVuSans-Bold-30" transform="translate(69.580078 0)"/>
       <use xlink:href="#DejaVuSans-Bold-2e" transform="translate(139.160156 0)"/>
       <use xlink:href="#DejaVuSans-Bold-30" transform="translate(177.148438 0)"/>
      </g>
     </g>
    </g>
    <g id="xtick_6">
     <g id="line2d_11">
      <path d="M 327.860625 255.878125 
L 327.860625 26.318125 
" clip-path="url(#p38c54ed2ba)" style="fill: none; stroke-dasharray: 0.7,1.155; stroke-dashoffset: 0; stroke: #b0b0b0; stroke-opacity: 0.45; stroke-width: 0.7"/>
     </g>
     <g id="line2d_12">
      <g>
       <use xlink:href="#mf497b3cbe7" x="327.860625" y="255.878125" style="stroke: #000000; stroke-width: 0.8"/>
      </g>
     </g>
     <g id="text_6">
      <!-- 92.5 -->
      <g transform="translate(315.524688 270.476562) scale(0.1 -0.1)">
       <use xlink:href="#DejaVuSans-Bold-39"/>
       <use xlink:href="#DejaVuSans-Bold-32" transform="translate(69.580078 0)"/>
       <use xlink:href="#DejaVuSans-Bold-2e" transform="translate(139.160156 0)"/>
       <use xlink:href="#DejaVuSans-Bold-35" transform="translate(177.148438 0)"/>
      </g>
     </g>
    </g>
    <g id="xtick_7">
     <g id="line2d_13">
      <path d="M 367.294938 255.878125 
L 367.294938 26.318125 
" clip-path="url(#p38c54ed2ba)" style="fill: none; stroke-dasharray: 0.7,1.155; stroke-dashoffset: 0; stroke: #b0b0b0; stroke-opacity: 0.45; stroke-width: 0.7"/>
     </g>
     <g id="line2d_14">
      <g>
       <use xlink:href="#mf497b3cbe7" x="367.294938" y="255.878125" style="stroke: #000000; stroke-width: 0.8"/>
      </g>
     </g>
     <g id="text_7">
      <!-- 95.0 -->
      <g transform="translate(354.959 270.476562) scale(0.1 -0.1)">
       <use xlink:href="#DejaVuSans-Bold-39"/>
       <use xlink:href="#DejaVuSans-Bold-35" transform="translate(69.580078 0)"/>
       <use xlink:href="#DejaVuSans-Bold-2e" transform="translate(139.160156 0)"/>
       <use xlink:href="#DejaVuSans-Bold-30" transform="translate(177.148438 0)"/>
      </g>
     </g>
    </g>
    <g id="xtick_8">
     <g id="line2d_15">
      <path d="M 406.72925 255.878125 
L 406.72925 26.318125 
" clip-path="url(#p38c54ed2ba)" style="fill: none; stroke-dasharray: 0.7,1.155; stroke-dashoffset: 0; stroke: #b0b0b0; stroke-opacity: 0.45; stroke-width: 0.7"/>
     </g>
     <g id="line2d_16">
      <g>
       <use xlink:href="#mf497b3cbe7" x="406.72925" y="255.878125" style="stroke: #000000; stroke-width: 0.8"/>
      </g>
     </g>
     <g id="text_8">
      <!-- 97.5 -->
      <g transform="translate(394.393313 270.476562) scale(0.1 -0.1)">
       <use xlink:href="#DejaVuSans-Bold-39"/>
       <use xlink:href="#DejaVuSans-Bold-37" transform="translate(69.580078 0)"/>
       <use xlink:href="#DejaVuSans-Bold-2e" transform="translate(139.160156 0)"/>
       <use xlink:href="#DejaVuSans-Bold-35" transform="translate(177.148438 0)"/>
      </g>
     </g>
    </g>
    <g id="xtick_9">
     <g id="line2d_17">
      <path d="M 446.163563 255.878125 
L 446.163563 26.318125 
" clip-path="url(#p38c54ed2ba)" style="fill: none; stroke-dasharray: 0.7,1.155; stroke-dashoffset: 0; stroke: #b0b0b0; stroke-opacity: 0.45; stroke-width: 0.7"/>
     </g>
     <g id="line2d_18">
      <g>
       <use xlink:href="#mf497b3cbe7" x="446.163563" y="255.878125" style="stroke: #000000; stroke-width: 0.8"/>
      </g>
     </g>
     <g id="text_9">
      <!-- 100.0 -->
      <g transform="translate(430.348719 270.476562) scale(0.1 -0.1)">
       <defs>
        <path id="DejaVuSans-Bold-31" d="M 750 831 
L 1813 831 
L 1813 3847 
L 722 3622 
L 722 4441 
L 1806 4666 
L 2950 4666 
L 2950 831 
L 4013 831 
L 4013 0 
L 750 0 
L 750 831 
z
" transform="scale(0.015625)"/>
       </defs>
       <use xlink:href="#DejaVuSans-Bold-31"/>
       <use xlink:href="#DejaVuSans-Bold-30" transform="translate(69.580078 0)"/>
       <use xlink:href="#DejaVuSans-Bold-30" transform="translate(139.160156 0)"/>
       <use xlink:href="#DejaVuSans-Bold-2e" transform="translate(208.740234 0)"/>
       <use xlink:href="#DejaVuSans-Bold-30" transform="translate(246.728516 0)"/>
      </g>
     </g>
    </g>
    <g id="text_10">
     <!-- Validation accuracy (%) -->
     <g transform="translate(221.991156 284.154687) scale(0.1 -0.1)">
      <defs>
       <path id="DejaVuSans-Bold-56" d="M 31 4666 
L 1241 4666 
L 2478 1222 
L 3713 4666 
L 4922 4666 
L 3194 0 
L 1759 0 
L 31 4666 
z
" transform="scale(0.015625)"/>
       <path id="DejaVuSans-Bold-61" d="M 2106 1575 
Q 1756 1575 1579 1456 
Q 1403 1338 1403 1106 
Q 1403 894 1545 773 
Q 1688 653 1941 653 
Q 2256 653 2472 879 
Q 2688 1106 2688 1447 
L 2688 1575 
L 2106 1575 
z
M 3816 1997 
L 3816 0 
L 2688 0 
L 2688 519 
Q 2463 200 2181 54 
Q 1900 -91 1497 -91 
Q 953 -91 614 226 
Q 275 544 275 1050 
Q 275 1666 698 1953 
Q 1122 2241 2028 2241 
L 2688 2241 
L 2688 2328 
Q 2688 2594 2478 2717 
Q 2269 2841 1825 2841 
Q 1466 2841 1156 2769 
Q 847 2697 581 2553 
L 581 3406 
Q 941 3494 1303 3539 
Q 1666 3584 2028 3584 
Q 2975 3584 3395 3211 
Q 3816 2838 3816 1997 
z
" transform="scale(0.015625)"/>
       <path id="DejaVuSans-Bold-6c" d="M 538 4863 
L 1656 4863 
L 1656 0 
L 538 0 
L 538 4863 
z
" transform="scale(0.015625)"/>
       <path id="DejaVuSans-Bold-69" d="M 538 3500 
L 1656 3500 
L 1656 0 
L 538 0 
L 538 3500 
z
M 538 4863 
L 1656 4863 
L 1656 3950 
L 538 3950 
L 538 4863 
z
" transform="scale(0.015625)"/>
       <path id="DejaVuSans-Bold-64" d="M 2919 2988 
L 2919 4863 
L 4044 4863 
L 4044 0 
L 2919 0 
L 2919 506 
Q 2688 197 2409 53 
Q 2131 -91 1766 -91 
Q 1119 -91 703 423 
Q 288 938 288 1747 
Q 288 2556 703 3070 
Q 1119 3584 1766 3584 
Q 2128 3584 2408 3439 
Q 2688 3294 2919 2988 
z
M 2181 722 
Q 2541 722 2730 984 
Q 2919 1247 2919 1747 
Q 2919 2247 2730 2509 
Q 2541 2772 2181 2772 
Q 1825 2772 1636 2509 
Q 1447 2247 1447 1747 
Q 1447 1247 1636 984 
Q 1825 722 2181 722 
z
" transform="scale(0.015625)"/>
       <path id="DejaVuSans-Bold-74" d="M 1759 4494 
L 1759 3500 
L 2913 3500 
L 2913 2700 
L 1759 2700 
L 1759 1216 
Q 1759 972 1856 886 
Q 1953 800 2241 800 
L 2816 800 
L 2816 0 
L 1856 0 
Q 1194 0 917 276 
Q 641 553 641 1216 
L 641 2700 
L 84 2700 
L 84 3500 
L 641 3500 
L 641 4494 
L 1759 4494 
z
" transform="scale(0.015625)"/>
       <path id="DejaVuSans-Bold-6f" d="M 2203 2784 
Q 1831 2784 1636 2517 
Q 1441 2250 1441 1747 
Q 1441 1244 1636 976 
Q 1831 709 2203 709 
Q 2569 709 2762 976 
Q 2956 1244 2956 1747 
Q 2956 2250 2762 2517 
Q 2569 2784 2203 2784 
z
M 2203 3584 
Q 3106 3584 3614 3096 
Q 4122 2609 4122 1747 
Q 4122 884 3614 396 
Q 3106 -91 2203 -91 
Q 1297 -91 786 396 
Q 275 884 275 1747 
Q 275 2609 786 3096 
Q 1297 3584 2203 3584 
z
" transform="scale(0.015625)"/>
       <path id="DejaVuSans-Bold-6e" d="M 4056 2131 
L 4056 0 
L 2931 0 
L 2931 347 
L 2931 1631 
Q 2931 2084 2911 2256 
Q 2891 2428 2841 2509 
Q 2775 2619 2662 2680 
Q 2550 2741 2406 2741 
Q 2056 2741 1856 2470 
Q 1656 2200 1656 1722 
L 1656 0 
L 538 0 
L 538 3500 
L 1656 3500 
L 1656 2988 
Q 1909 3294 2193 3439 
Q 2478 3584 2822 3584 
Q 3428 3584 3742 3212 
Q 4056 2841 4056 2131 
z
" transform="scale(0.015625)"/>
       <path id="DejaVuSans-Bold-20" transform="scale(0.015625)"/>
       <path id="DejaVuSans-Bold-63" d="M 3366 3391 
L 3366 2478 
Q 3138 2634 2908 2709 
Q 2678 2784 2431 2784 
Q 1963 2784 1702 2511 
Q 1441 2238 1441 1747 
Q 1441 1256 1702 982 
Q 1963 709 2431 709 
Q 2694 709 2930 787 
Q 3166 866 3366 1019 
L 3366 103 
Q 3103 6 2833 -42 
Q 2563 -91 2291 -91 
Q 1344 -91 809 395 
Q 275 881 275 1747 
Q 275 2613 809 3098 
Q 1344 3584 2291 3584 
Q 2566 3584 2833 3536 
Q 3100 3488 3366 3391 
z
" transform="scale(0.015625)"/>
       <path id="DejaVuSans-Bold-75" d="M 500 1363 
L 500 3500 
L 1625 3500 
L 1625 3150 
Q 1625 2866 1622 2436 
Q 1619 2006 1619 1863 
Q 1619 1441 1641 1255 
Q 1663 1069 1716 984 
Q 1784 875 1895 815 
Q 2006 756 2150 756 
Q 2500 756 2700 1025 
Q 2900 1294 2900 1772 
L 2900 3500 
L 4019 3500 
L 4019 0 
L 2900 0 
L 2900 506 
Q 2647 200 2364 54 
Q 2081 -91 1741 -91 
Q 1134 -91 817 281 
Q 500 653 500 1363 
z
" transform="scale(0.015625)"/>
       <path id="DejaVuSans-Bold-72" d="M 3138 2547 
Q 2991 2616 2845 2648 
Q 2700 2681 2553 2681 
Q 2122 2681 1889 2404 
Q 1656 2128 1656 1613 
L 1656 0 
L 538 0 
L 538 3500 
L 1656 3500 
L 1656 2925 
Q 1872 3269 2151 3426 
Q 2431 3584 2822 3584 
Q 2878 3584 2943 3579 
Q 3009 3575 3134 3559 
L 3138 2547 
z
" transform="scale(0.015625)"/>
       <path id="DejaVuSans-Bold-79" d="M 78 3500 
L 1197 3500 
L 2138 1125 
L 2938 3500 
L 4056 3500 
L 2584 -331 
Q 2363 -916 2067 -1148 
Q 1772 -1381 1288 -1381 
L 641 -1381 
L 641 -647 
L 991 -647 
Q 1275 -647 1404 -556 
Q 1534 -466 1606 -231 
L 1638 -134 
L 78 3500 
z
" transform="scale(0.015625)"/>
       <path id="DejaVuSans-Bold-28" d="M 2413 -844 
L 1484 -844 
Q 1006 -72 778 623 
Q 550 1319 550 2003 
Q 550 2688 779 3389 
Q 1009 4091 1484 4856 
L 2413 4856 
Q 2013 4116 1813 3408 
Q 1613 2700 1613 2009 
Q 1613 1319 1811 609 
Q 2009 -100 2413 -844 
z
" transform="scale(0.015625)"/>
       <path id="DejaVuSans-Bold-25" d="M 4959 1925 
Q 4738 1925 4616 1733 
Q 4494 1541 4494 1184 
Q 4494 825 4614 633 
Q 4734 441 4959 441 
Q 5184 441 5303 633 
Q 5422 825 5422 1184 
Q 5422 1541 5301 1733 
Q 5181 1925 4959 1925 
z
M 4959 2450 
Q 5541 2450 5875 2112 
Q 6209 1775 6209 1184 
Q 6209 594 5875 251 
Q 5541 -91 4959 -91 
Q 4378 -91 4042 251 
Q 3706 594 3706 1184 
Q 3706 1772 4042 2111 
Q 4378 2450 4959 2450 
z
M 2094 -91 
L 1403 -91 
L 4319 4750 
L 5013 4750 
L 2094 -91 
z
M 1453 4750 
Q 2034 4750 2367 4411 
Q 2700 4072 2700 3481 
Q 2700 2891 2367 2550 
Q 2034 2209 1453 2209 
Q 872 2209 539 2550 
Q 206 2891 206 3481 
Q 206 4072 539 4411 
Q 872 4750 1453 4750 
z
M 1453 4225 
Q 1228 4225 1106 4031 
Q 984 3838 984 3481 
Q 984 3122 1106 2926 
Q 1228 2731 1453 2731 
Q 1678 2731 1798 2926 
Q 1919 3122 1919 3481 
Q 1919 3838 1797 4031 
Q 1675 4225 1453 4225 
z
" transform="scale(0.015625)"/>
       <path id="DejaVuSans-Bold-29" d="M 513 -844 
Q 913 -100 1113 609 
Q 1313 1319 1313 2009 
Q 1313 2700 1113 3408 
Q 913 4116 513 4856 
L 1441 4856 
Q 1916 4091 2145 3389 
Q 2375 2688 2375 2003 
Q 2375 1319 2147 623 
Q 1919 -72 1441 -844 
L 513 -844 
z
" transform="scale(0.015625)"/>
      </defs>
      <use xlink:href="#DejaVuSans-Bold-56"/>
      <use xlink:href="#DejaVuSans-Bold-61" transform="translate(71.892578 0)"/>
      <use xlink:href="#DejaVuSans-Bold-6c" transform="translate(139.373047 0)"/>
      <use xlink:href="#DejaVuSans-Bold-69" transform="translate(173.650391 0)"/>
      <use xlink:href="#DejaVuSans-Bold-64" transform="translate(207.927734 0)"/>
      <use xlink:href="#DejaVuSans-Bold-61" transform="translate(279.509766 0)"/>
      <use xlink:href="#DejaVuSans-Bold-74" transform="translate(346.990234 0)"/>
      <use xlink:href="#DejaVuSans-Bold-69" transform="translate(394.792969 0)"/>
      <use xlink:href="#DejaVuSans-Bold-6f" transform="translate(429.070312 0)"/>
      <use xlink:href="#DejaVuSans-Bold-6e" transform="translate(497.771484 0)"/>
      <use xlink:href="#DejaVuSans-Bold-20" transform="translate(568.962891 0)"/>
      <use xlink:href="#DejaVuSans-Bold-61" transform="translate(603.777344 0)"/>
      <use xlink:href="#DejaVuSans-Bold-63" transform="translate(671.257812 0)"/>
      <use xlink:href="#DejaVuSans-Bold-63" transform="translate(730.535156 0)"/>
      <use xlink:href="#DejaVuSans-Bold-75" transform="translate(789.8125 0)"/>
      <use xlink:href="#DejaVuSans-Bold-72" transform="translate(861.003906 0)"/>
      <use xlink:href="#DejaVuSans-Bold-61" transform="translate(910.320312 0)"/>
      <use xlink:href="#DejaVuSans-Bold-63" transform="translate(977.800781 0)"/>
      <use xlink:href="#DejaVuSans-Bold-79" transform="translate(1037.078125 0)"/>
      <use xlink:href="#DejaVuSans-Bold-20" transform="translate(1102.263672 0)"/>
      <use xlink:href="#DejaVuSans-Bold-28" transform="translate(1137.078125 0)"/>
      <use xlink:href="#DejaVuSans-Bold-25" transform="translate(1182.78125 0)"/>
      <use xlink:href="#DejaVuSans-Bold-29" transform="translate(1282.976562 0)"/>
     </g>
    </g>
   </g>
   <g id="matplotlib.axis_2">
    <g id="ytick_1">
     <g id="line2d_19">
      <defs>
       <path id="me2b7f384e9" d="M 0 0 
L -3.5 0 
" style="stroke: #000000; stroke-width: 0.8"/>
      </defs>
      <g>
       <use xlink:href="#me2b7f384e9" x="130.689063" y="36.75267" style="stroke: #000000; stroke-width: 0.8"/>
      </g>
     </g>
     <g id="text_11">
      <!-- Enhanced CNN-small -->
      <g transform="translate(7.2 40.551889) scale(0.1 -0.1)">
       <defs>
        <path id="DejaVuSans-Bold-45" d="M 588 4666 
L 3834 4666 
L 3834 3756 
L 1791 3756 
L 1791 2888 
L 3713 2888 
L 3713 1978 
L 1791 1978 
L 1791 909 
L 3903 909 
L 3903 0 
L 588 0 
L 588 4666 
z
" transform="scale(0.015625)"/>
        <path id="DejaVuSans-Bold-68" d="M 4056 2131 
L 4056 0 
L 2931 0 
L 2931 347 
L 2931 1625 
Q 2931 2084 2911 2256 
Q 2891 2428 2841 2509 
Q 2775 2619 2662 2680 
Q 2550 2741 2406 2741 
Q 2056 2741 1856 2470 
Q 1656 2200 1656 1722 
L 1656 0 
L 538 0 
L 538 4863 
L 1656 4863 
L 1656 2988 
Q 1909 3294 2193 3439 
Q 2478 3584 2822 3584 
Q 3428 3584 3742 3212 
Q 4056 2841 4056 2131 
z
" transform="scale(0.015625)"/>
        <path id="DejaVuSans-Bold-65" d="M 4031 1759 
L 4031 1441 
L 1416 1441 
Q 1456 1047 1700 850 
Q 1944 653 2381 653 
Q 2734 653 3104 758 
Q 3475 863 3866 1075 
L 3866 213 
Q 3469 63 3072 -14 
Q 2675 -91 2278 -91 
Q 1328 -91 801 392 
Q 275 875 275 1747 
Q 275 2603 792 3093 
Q 1309 3584 2216 3584 
Q 3041 3584 3536 3087 
Q 4031 2591 4031 1759 
z
M 2881 2131 
Q 2881 2450 2695 2645 
Q 2509 2841 2209 2841 
Q 1884 2841 1681 2658 
Q 1478 2475 1428 2131 
L 2881 2131 
z
" transform="scale(0.015625)"/>
        <path id="DejaVuSans-Bold-43" d="M 4288 256 
Q 3956 84 3597 -3 
Q 3238 -91 2847 -91 
Q 1681 -91 1000 561 
Q 319 1213 319 2328 
Q 319 3447 1000 4098 
Q 1681 4750 2847 4750 
Q 3238 4750 3597 4662 
Q 3956 4575 4288 4403 
L 4288 3438 
Q 3953 3666 3628 3772 
Q 3303 3878 2944 3878 
Q 2300 3878 1931 3465 
Q 1563 3053 1563 2328 
Q 1563 1606 1931 1193 
Q 2300 781 2944 781 
Q 3303 781 3628 887 
Q 3953 994 4288 1222 
L 4288 256 
z
" transform="scale(0.015625)"/>
        <path id="DejaVuSans-Bold-4e" d="M 588 4666 
L 1931 4666 
L 3628 1466 
L 3628 4666 
L 4769 4666 
L 4769 0 
L 3425 0 
L 1728 3200 
L 1728 0 
L 588 0 
L 588 4666 
z
" transform="scale(0.015625)"/>
        <path id="DejaVuSans-Bold-2d" d="M 347 2297 
L 2309 2297 
L 2309 1388 
L 347 1388 
L 347 2297 
z
" transform="scale(0.015625)"/>
        <path id="DejaVuSans-Bold-73" d="M 3272 3391 
L 3272 2541 
Q 2913 2691 2578 2766 
Q 2244 2841 1947 2841 
Q 1628 2841 1473 2761 
Q 1319 2681 1319 2516 
Q 1319 2381 1436 2309 
Q 1553 2238 1856 2203 
L 2053 2175 
Q 2913 2066 3209 1816 
Q 3506 1566 3506 1031 
Q 3506 472 3093 190 
Q 2681 -91 1863 -91 
Q 1516 -91 1145 -36 
Q 775 19 384 128 
L 384 978 
Q 719 816 1070 734 
Q 1422 653 1784 653 
Q 2113 653 2278 743 
Q 2444 834 2444 1013 
Q 2444 1163 2330 1236 
Q 2216 1309 1875 1350 
L 1678 1375 
Q 931 1469 631 1722 
Q 331 1975 331 2491 
Q 331 3047 712 3315 
Q 1094 3584 1881 3584 
Q 2191 3584 2531 3537 
Q 2872 3491 3272 3391 
z
" transform="scale(0.015625)"/>
        <path id="DejaVuSans-Bold-6d" d="M 3781 2919 
Q 3994 3244 4286 3414 
Q 4578 3584 4928 3584 
Q 5531 3584 5847 3212 
Q 6163 2841 6163 2131 
L 6163 0 
L 5038 0 
L 5038 1825 
Q 5041 1866 5042 1909 
Q 5044 1953 5044 2034 
Q 5044 2406 4934 2573 
Q 4825 2741 4581 2741 
Q 4263 2741 4089 2478 
Q 3916 2216 3909 1719 
L 3909 0 
L 2784 0 
L 2784 1825 
Q 2784 2406 2684 2573 
Q 2584 2741 2328 2741 
Q 2006 2741 1831 2477 
Q 1656 2213 1656 1722 
L 1656 0 
L 531 0 
L 531 3500 
L 1656 3500 
L 1656 2988 
Q 1863 3284 2130 3434 
Q 2397 3584 2719 3584 
Q 3081 3584 3359 3409 
Q 3638 3234 3781 2919 
z
" transform="scale(0.015625)"/>
       </defs>
       <use xlink:href="#DejaVuSans-Bold-45"/>
       <use xlink:href="#DejaVuSans-Bold-6e" transform="translate(68.310547 0)"/>
       <use xlink:href="#DejaVuSans-Bold-68" transform="translate(139.501953 0)"/>
       <use xlink:href="#DejaVuSans-Bold-61" transform="translate(210.693359 0)"/>
       <use xlink:href="#DejaVuSans-Bold-6e" transform="translate(278.173828 0)"/>
       <use xlink:href="#DejaVuSans-Bold-63" transform="translate(349.365234 0)"/>
       <use xlink:href="#DejaVuSans-Bold-65" transform="translate(408.642578 0)"/>
       <use xlink:href="#DejaVuSans-Bold-64" transform="translate(476.464844 0)"/>
       <use xlink:href="#DejaVuSans-Bold-20" transform="translate(548.046875 0)"/>
       <use xlink:href="#DejaVuSans-Bold-43" transform="translate(582.861328 0)"/>
       <use xlink:href="#DejaVuSans-Bold-4e" transform="translate(656.25 0)"/>
       <use xlink:href="#DejaVuSans-Bold-4e" transform="translate(739.941406 0)"/>
       <use xlink:href="#DejaVuSans-Bold-2d" transform="translate(823.632812 0)"/>
       <use xlink:href="#DejaVuSans-Bold-73" transform="translate(865.136719 0)"/>
       <use xlink:href="#DejaVuSans-Bold-6d" transform="translate(924.658203 0)"/>
       <use xlink:href="#DejaVuSans-Bold-61" transform="translate(1028.857422 0)"/>
       <use xlink:href="#DejaVuSans-Bold-6c" transform="translate(1096.337891 0)"/>
       <use xlink:href="#DejaVuSans-Bold-6c" transform="translate(1130.615234 0)"/>
      </g>
     </g>
    </g>
    <g id="ytick_2">
     <g id="line2d_20">
      <g>
       <use xlink:href="#me2b7f384e9" x="130.689063" y="71.534489" style="stroke: #000000; stroke-width: 0.8"/>
      </g>
     </g>
     <g id="text_12">
      <!-- Hybrid Soft Voting -->
      <g transform="translate(19.41875 75.333707) scale(0.1 -0.1)">
       <defs>
        <path id="DejaVuSans-Bold-48" d="M 588 4666 
L 1791 4666 
L 1791 2888 
L 3566 2888 
L 3566 4666 
L 4769 4666 
L 4769 0 
L 3566 0 
L 3566 1978 
L 1791 1978 
L 1791 0 
L 588 0 
L 588 4666 
z
" transform="scale(0.015625)"/>
        <path id="DejaVuSans-Bold-62" d="M 2400 722 
Q 2759 722 2948 984 
Q 3138 1247 3138 1747 
Q 3138 2247 2948 2509 
Q 2759 2772 2400 2772 
Q 2041 2772 1848 2508 
Q 1656 2244 1656 1747 
Q 1656 1250 1848 986 
Q 2041 722 2400 722 
z
M 1656 2988 
Q 1888 3294 2169 3439 
Q 2450 3584 2816 3584 
Q 3463 3584 3878 3070 
Q 4294 2556 4294 1747 
Q 4294 938 3878 423 
Q 3463 -91 2816 -91 
Q 2450 -91 2169 54 
Q 1888 200 1656 506 
L 1656 0 
L 538 0 
L 538 4863 
L 1656 4863 
L 1656 2988 
z
" transform="scale(0.015625)"/>
        <path id="DejaVuSans-Bold-53" d="M 3834 4519 
L 3834 3531 
Q 3450 3703 3084 3790 
Q 2719 3878 2394 3878 
Q 1963 3878 1756 3759 
Q 1550 3641 1550 3391 
Q 1550 3203 1689 3098 
Q 1828 2994 2194 2919 
L 2706 2816 
Q 3484 2659 3812 2340 
Q 4141 2022 4141 1434 
Q 4141 663 3683 286 
Q 3225 -91 2284 -91 
Q 1841 -91 1394 -6 
Q 947 78 500 244 
L 500 1259 
Q 947 1022 1364 901 
Q 1781 781 2169 781 
Q 2563 781 2772 912 
Q 2981 1044 2981 1288 
Q 2981 1506 2839 1625 
Q 2697 1744 2272 1838 
L 1806 1941 
Q 1106 2091 782 2419 
Q 459 2747 459 3303 
Q 459 4000 909 4375 
Q 1359 4750 2203 4750 
Q 2588 4750 2994 4692 
Q 3400 4634 3834 4519 
z
" transform="scale(0.015625)"/>
        <path id="DejaVuSans-Bold-66" d="M 2841 4863 
L 2841 4128 
L 2222 4128 
Q 1984 4128 1890 4042 
Q 1797 3956 1797 3744 
L 1797 3500 
L 2753 3500 
L 2753 2700 
L 1797 2700 
L 1797 0 
L 678 0 
L 678 2700 
L 122 2700 
L 122 3500 
L 678 3500 
L 678 3744 
Q 678 4316 997 4589 
Q 1316 4863 1984 4863 
L 2841 4863 
z
" transform="scale(0.015625)"/>
        <path id="DejaVuSans-Bold-67" d="M 2919 594 
Q 2688 288 2409 144 
Q 2131 0 1766 0 
Q 1125 0 706 504 
Q 288 1009 288 1791 
Q 288 2575 706 3076 
Q 1125 3578 1766 3578 
Q 2131 3578 2409 3434 
Q 2688 3291 2919 2981 
L 2919 3500 
L 4044 3500 
L 4044 353 
Q 4044 -491 3511 -936 
Q 2978 -1381 1966 -1381 
Q 1638 -1381 1331 -1331 
Q 1025 -1281 716 -1178 
L 716 -306 
Q 1009 -475 1290 -558 
Q 1572 -641 1856 -641 
Q 2406 -641 2662 -400 
Q 2919 -159 2919 353 
L 2919 594 
z
M 2181 2772 
Q 1834 2772 1640 2515 
Q 1447 2259 1447 1791 
Q 1447 1309 1634 1061 
Q 1822 813 2181 813 
Q 2531 813 2725 1069 
Q 2919 1325 2919 1791 
Q 2919 2259 2725 2515 
Q 2531 2772 2181 2772 
z
" transform="scale(0.015625)"/>
       </defs>
       <use xlink:href="#DejaVuSans-Bold-48"/>
       <use xlink:href="#DejaVuSans-Bold-79" transform="translate(83.691406 0)"/>
       <use xlink:href="#DejaVuSans-Bold-62" transform="translate(148.876953 0)"/>
       <use xlink:href="#DejaVuSans-Bold-72" transform="translate(220.458984 0)"/>
       <use xlink:href="#DejaVuSans-Bold-69" transform="translate(269.775391 0)"/>
       <use xlink:href="#DejaVuSans-Bold-64" transform="translate(304.052734 0)"/>
       <use xlink:href="#DejaVuSans-Bold-20" transform="translate(375.634766 0)"/>
       <use xlink:href="#DejaVuSans-Bold-53" transform="translate(410.449219 0)"/>
       <use xlink:href="#DejaVuSans-Bold-6f" transform="translate(482.470703 0)"/>
       <use xlink:href="#DejaVuSans-Bold-66" transform="translate(551.171875 0)"/>
       <use xlink:href="#DejaVuSans-Bold-74" transform="translate(594.677734 0)"/>
       <use xlink:href="#DejaVuSans-Bold-20" transform="translate(642.480469 0)"/>
       <use xlink:href="#DejaVuSans-Bold-56" transform="translate(677.294922 0)"/>
       <use xlink:href="#DejaVuSans-Bold-6f" transform="translate(749.1875 0)"/>
       <use xlink:href="#DejaVuSans-Bold-74" transform="translate(817.888672 0)"/>
       <use xlink:href="#DejaVuSans-Bold-69" transform="translate(865.691406 0)"/>
       <use xlink:href="#DejaVuSans-Bold-6e" transform="translate(899.96875 0)"/>
       <use xlink:href="#DejaVuSans-Bold-67" transform="translate(971.160156 0)"/>
      </g>
     </g>
    </g>
    <g id="ytick_3">
     <g id="line2d_21">
      <g>
       <use xlink:href="#me2b7f384e9" x="130.689063" y="106.316307" style="stroke: #000000; stroke-width: 0.8"/>
      </g>
     </g>
     <g id="text_13">
      <!-- CNN-BatchNorm -->
      <g transform="translate(32.675 110.115526) scale(0.1 -0.1)">
       <defs>
        <path id="DejaVuSans-Bold-42" d="M 2456 2859 
Q 2741 2859 2887 2984 
Q 3034 3109 3034 3353 
Q 3034 3594 2887 3720 
Q 2741 3847 2456 3847 
L 1791 3847 
L 1791 2859 
L 2456 2859 
z
M 2497 819 
Q 2859 819 3042 972 
Q 3225 1125 3225 1434 
Q 3225 1738 3044 1889 
Q 2863 2041 2497 2041 
L 1791 2041 
L 1791 819 
L 2497 819 
z
M 3616 2497 
Q 4003 2384 4215 2081 
Q 4428 1778 4428 1338 
Q 4428 663 3972 331 
Q 3516 0 2584 0 
L 588 0 
L 588 4666 
L 2394 4666 
Q 3366 4666 3802 4372 
Q 4238 4078 4238 3431 
Q 4238 3091 4078 2852 
Q 3919 2613 3616 2497 
z
" transform="scale(0.015625)"/>
       </defs>
       <use xlink:href="#DejaVuSans-Bold-43"/>
       <use xlink:href="#DejaVuSans-Bold-4e" transform="translate(73.388672 0)"/>
       <use xlink:href="#DejaVuSans-Bold-4e" transform="translate(157.080078 0)"/>
       <use xlink:href="#DejaVuSans-Bold-2d" transform="translate(240.771484 0)"/>
       <use xlink:href="#DejaVuSans-Bold-42" transform="translate(282.275391 0)"/>
       <use xlink:href="#DejaVuSans-Bold-61" transform="translate(358.496094 0)"/>
       <use xlink:href="#DejaVuSans-Bold-74" transform="translate(425.976562 0)"/>
       <use xlink:href="#DejaVuSans-Bold-63" transform="translate(473.779297 0)"/>
       <use xlink:href="#DejaVuSans-Bold-68" transform="translate(533.056641 0)"/>
       <use xlink:href="#DejaVuSans-Bold-4e" transform="translate(604.248047 0)"/>
       <use xlink:href="#DejaVuSans-Bold-6f" transform="translate(687.939453 0)"/>
       <use xlink:href="#DejaVuSans-Bold-72" transform="translate(756.640625 0)"/>
       <use xlink:href="#DejaVuSans-Bold-6d" transform="translate(805.957031 0)"/>
      </g>
     </g>
    </g>
    <g id="ytick_4">
     <g id="line2d_22">
      <g>
       <use xlink:href="#me2b7f384e9" x="130.689063" y="141.098125" style="stroke: #000000; stroke-width: 0.8"/>
      </g>
     </g>
     <g id="text_14">
      <!-- RBF-SVM -->
      <g transform="translate(72.80625 144.897344) scale(0.1 -0.1)">
       <defs>
        <path id="DejaVuSans-Bold-52" d="M 2297 2597 
Q 2675 2597 2839 2737 
Q 3003 2878 3003 3200 
Q 3003 3519 2839 3656 
Q 2675 3794 2297 3794 
L 1791 3794 
L 1791 2597 
L 2297 2597 
z
M 1791 1766 
L 1791 0 
L 588 0 
L 588 4666 
L 2425 4666 
Q 3347 4666 3776 4356 
Q 4206 4047 4206 3378 
Q 4206 2916 3982 2619 
Q 3759 2322 3309 2181 
Q 3556 2125 3751 1926 
Q 3947 1728 4147 1325 
L 4800 0 
L 3519 0 
L 2950 1159 
Q 2778 1509 2601 1637 
Q 2425 1766 2131 1766 
L 1791 1766 
z
" transform="scale(0.015625)"/>
        <path id="DejaVuSans-Bold-46" d="M 588 4666 
L 3834 4666 
L 3834 3756 
L 1791 3756 
L 1791 2888 
L 3713 2888 
L 3713 1978 
L 1791 1978 
L 1791 0 
L 588 0 
L 588 4666 
z
" transform="scale(0.015625)"/>
        <path id="DejaVuSans-Bold-4d" d="M 588 4666 
L 2119 4666 
L 3181 2169 
L 4250 4666 
L 5778 4666 
L 5778 0 
L 4641 0 
L 4641 3413 
L 3566 897 
L 2803 897 
L 1728 3413 
L 1728 0 
L 588 0 
L 588 4666 
z
" transform="scale(0.015625)"/>
       </defs>
       <use xlink:href="#DejaVuSans-Bold-52"/>
       <use xlink:href="#DejaVuSans-Bold-42" transform="translate(77.001953 0)"/>
       <use xlink:href="#DejaVuSans-Bold-46" transform="translate(153.222656 0)"/>
       <use xlink:href="#DejaVuSans-Bold-2d" transform="translate(218.408203 0)"/>
       <use xlink:href="#DejaVuSans-Bold-53" transform="translate(259.912109 0)"/>
       <use xlink:href="#DejaVuSans-Bold-56" transform="translate(331.933594 0)"/>
       <use xlink:href="#DejaVuSans-Bold-4d" transform="translate(409.326172 0)"/>
      </g>
     </g>
    </g>
    <g id="ytick_5">
     <g id="line2d_23">
      <g>
       <use xlink:href="#me2b7f384e9" x="130.689063" y="175.879943" style="stroke: #000000; stroke-width: 0.8"/>
      </g>
     </g>
     <g id="text_15">
      <!-- Random Forest -->
      <g transform="translate(38.445312 179.679162) scale(0.1 -0.1)">
       <use xlink:href="#DejaVuSans-Bold-52"/>
       <use xlink:href="#DejaVuSans-Bold-61" transform="translate(77.001953 0)"/>
       <use xlink:href="#DejaVuSans-Bold-6e" transform="translate(144.482422 0)"/>
       <use xlink:href="#DejaVuSans-Bold-64" transform="translate(215.673828 0)"/>
       <use xlink:href="#DejaVuSans-Bold-6f" transform="translate(287.255859 0)"/>
       <use xlink:href="#DejaVuSans-Bold-6d" transform="translate(355.957031 0)"/>
       <use xlink:href="#DejaVuSans-Bold-20" transform="translate(460.15625 0)"/>
       <use xlink:href="#DejaVuSans-Bold-46" transform="translate(494.970703 0)"/>
       <use xlink:href="#DejaVuSans-Bold-6f" transform="translate(559.28125 0)"/>
       <use xlink:href="#DejaVuSans-Bold-72" transform="translate(627.982422 0)"/>
       <use xlink:href="#DejaVuSans-Bold-65" transform="translate(677.298828 0)"/>
       <use xlink:href="#DejaVuSans-Bold-73" transform="translate(745.121094 0)"/>
       <use xlink:href="#DejaVuSans-Bold-74" transform="translate(804.642578 0)"/>
      </g>
     </g>
    </g>
    <g id="ytick_6">
     <g id="line2d_24">
      <g>
       <use xlink:href="#me2b7f384e9" x="130.689063" y="210.661761" style="stroke: #000000; stroke-width: 0.8"/>
      </g>
     </g>
     <g id="text_16">
      <!-- Extra Trees -->
      <g transform="translate(60.296875 214.46098) scale(0.1 -0.1)">
       <defs>
        <path id="DejaVuSans-Bold-78" d="M 1422 1791 
L 159 3500 
L 1344 3500 
L 2059 2463 
L 2784 3500 
L 3969 3500 
L 2706 1797 
L 4031 0 
L 2847 0 
L 2059 1106 
L 1281 0 
L 97 0 
L 1422 1791 
z
" transform="scale(0.015625)"/>
        <path id="DejaVuSans-Bold-54" d="M 31 4666 
L 4331 4666 
L 4331 3756 
L 2784 3756 
L 2784 0 
L 1581 0 
L 1581 3756 
L 31 3756 
L 31 4666 
z
" transform="scale(0.015625)"/>
       </defs>
       <use xlink:href="#DejaVuSans-Bold-45"/>
       <use xlink:href="#DejaVuSans-Bold-78" transform="translate(68.310547 0)"/>
       <use xlink:href="#DejaVuSans-Bold-74" transform="translate(132.8125 0)"/>
       <use xlink:href="#DejaVuSans-Bold-72" transform="translate(180.615234 0)"/>
       <use xlink:href="#DejaVuSans-Bold-61" transform="translate(229.931641 0)"/>
       <use xlink:href="#DejaVuSans-Bold-20" transform="translate(297.412109 0)"/>
       <use xlink:href="#DejaVuSans-Bold-54" transform="translate(332.226562 0)"/>
       <use xlink:href="#DejaVuSans-Bold-72" transform="translate(389.439453 0)"/>
       <use xlink:href="#DejaVuSans-Bold-65" transform="translate(438.755859 0)"/>
       <use xlink:href="#DejaVuSans-Bold-65" transform="translate(506.578125 0)"/>
       <use xlink:href="#DejaVuSans-Bold-73" transform="translate(574.400391 0)"/>
      </g>
     </g>
    </g>
    <g id="ytick_7">
     <g id="line2d_25">
      <g>
       <use xlink:href="#me2b7f384e9" x="130.689063" y="245.44358" style="stroke: #000000; stroke-width: 0.8"/>
      </g>
     </g>
     <g id="text_17">
      <!-- Logistic Regression -->
      <g transform="translate(13.617188 249.242798) scale(0.1 -0.1)">
       <defs>
        <path id="DejaVuSans-Bold-4c" d="M 588 4666 
L 1791 4666 
L 1791 909 
L 3903 909 
L 3903 0 
L 588 0 
L 588 4666 
z
" transform="scale(0.015625)"/>
       </defs>
       <use xlink:href="#DejaVuSans-Bold-4c"/>
       <use xlink:href="#DejaVuSans-Bold-6f" transform="translate(63.720703 0)"/>
       <use xlink:href="#DejaVuSans-Bold-67" transform="translate(132.421875 0)"/>
       <use xlink:href="#DejaVuSans-Bold-69" transform="translate(204.003906 0)"/>
       <use xlink:href="#DejaVuSans-Bold-73" transform="translate(238.28125 0)"/>
       <use xlink:href="#DejaVuSans-Bold-74" transform="translate(297.802734 0)"/>
       <use xlink:href="#DejaVuSans-Bold-69" transform="translate(345.605469 0)"/>
       <use xlink:href="#DejaVuSans-Bold-63" transform="translate(379.882812 0)"/>
       <use xlink:href="#DejaVuSans-Bold-20" transform="translate(439.160156 0)"/>
       <use xlink:href="#DejaVuSans-Bold-52" transform="translate(473.974609 0)"/>
       <use xlink:href="#DejaVuSans-Bold-65" transform="translate(550.976562 0)"/>
       <use xlink:href="#DejaVuSans-Bold-67" transform="translate(618.798828 0)"/>
       <use xlink:href="#DejaVuSans-Bold-72" transform="translate(690.380859 0)"/>
       <use xlink:href="#DejaVuSans-Bold-65" transform="translate(739.697266 0)"/>
       <use xlink:href="#DejaVuSans-Bold-73" transform="translate(807.519531 0)"/>
       <use xlink:href="#DejaVuSans-Bold-73" transform="translate(867.041016 0)"/>
       <use xlink:href="#DejaVuSans-Bold-69" transform="translate(926.5625 0)"/>
       <use xlink:href="#DejaVuSans-Bold-6f" transform="translate(960.839844 0)"/>
       <use xlink:href="#DejaVuSans-Bold-6e" transform="translate(1029.541016 0)"/>
      </g>
     </g>
    </g>
   </g>
   <g id="LineCollection_1">
    <path d="M 376.759173 36.75267 
L 414.616113 36.75267 
" clip-path="url(#p38c54ed2ba)" style="fill: none; stroke: #1b4f72; stroke-width: 1.4"/>
    <path d="M 365.717565 71.534489 
L 403.574505 71.534489 
" clip-path="url(#p38c54ed2ba)" style="fill: none; stroke: #1b4f72; stroke-width: 1.4"/>
    <path d="M 348.366468 106.316307 
L 392.532898 106.316307 
" clip-path="url(#p38c54ed2ba)" style="fill: none; stroke: #1b4f72; stroke-width: 1.4"/>
    <path d="M 296.313175 141.098125 
L 343.63435 141.098125 
" clip-path="url(#p38c54ed2ba)" style="fill: none; stroke: #1b4f72; stroke-width: 1.4"/>
    <path d="M 258.456235 175.879943 
L 315.241645 175.879943 
" clip-path="url(#p38c54ed2ba)" style="fill: none; stroke: #1b4f72; stroke-width: 1.4"/>
    <path d="M 253.724118 210.661761 
L 307.354783 210.661761 
" clip-path="url(#p38c54ed2ba)" style="fill: none; stroke: #1b4f72; stroke-width: 1.4"/>
    <path d="M 185.8971 245.44358 
L 252.146745 245.44358 
" clip-path="url(#p38c54ed2ba)" style="fill: none; stroke: #1b4f72; stroke-width: 1.4"/>
   </g>
   <g id="line2d_26">
    <defs>
     <path id="m0e5789864c" d="M 0 4 
L 0 -4 
" style="stroke: #1b4f72"/>
    </defs>
    <g clip-path="url(#p38c54ed2ba)">
     <use xlink:href="#m0e5789864c" x="376.759173" y="36.75267" style="fill: #1b4f72; stroke: #1b4f72"/>
     <use xlink:href="#m0e5789864c" x="365.717565" y="71.534489" style="fill: #1b4f72; stroke: #1b4f72"/>
     <use xlink:href="#m0e5789864c" x="348.366468" y="106.316307" style="fill: #1b4f72; stroke: #1b4f72"/>
     <use xlink:href="#m0e5789864c" x="296.313175" y="141.098125" style="fill: #1b4f72; stroke: #1b4f72"/>
     <use xlink:href="#m0e5789864c" x="258.456235" y="175.879943" style="fill: #1b4f72; stroke: #1b4f72"/>
     <use xlink:href="#m0e5789864c" x="253.724118" y="210.661761" style="fill: #1b4f72; stroke: #1b4f72"/>
     <use xlink:href="#m0e5789864c" x="185.8971" y="245.44358" style="fill: #1b4f72; stroke: #1b4f72"/>
    </g>
   </g>
   <g id="line2d_27">
    <g clip-path="url(#p38c54ed2ba)">
     <use xlink:href="#m0e5789864c" x="414.616113" y="36.75267" style="fill: #1b4f72; stroke: #1b4f72"/>
     <use xlink:href="#m0e5789864c" x="403.574505" y="71.534489" style="fill: #1b4f72; stroke: #1b4f72"/>
     <use xlink:href="#m0e5789864c" x="392.532898" y="106.316307" style="fill: #1b4f72; stroke: #1b4f72"/>
     <use xlink:href="#m0e5789864c" x="343.63435" y="141.098125" style="fill: #1b4f72; stroke: #1b4f72"/>
     <use xlink:href="#m0e5789864c" x="315.241645" y="175.879943" style="fill: #1b4f72; stroke: #1b4f72"/>
     <use xlink:href="#m0e5789864c" x="307.354783" y="210.661761" style="fill: #1b4f72; stroke: #1b4f72"/>
     <use xlink:href="#m0e5789864c" x="252.146745" y="245.44358" style="fill: #1b4f72; stroke: #1b4f72"/>
    </g>
   </g>
   <g id="line2d_28">
    <defs>
     <path id="m69bf4131dd" d="M 0 2.5 
C 0.663008 2.5 1.29895 2.236584 1.767767 1.767767 
C 2.236584 1.29895 2.5 0.663008 2.5 0 
C 2.5 -0.663008 2.236584 -1.29895 1.767767 -1.767767 
C 1.29895 -2.236584 0.663008 -2.5 0 -2.5 
C -0.663008 -2.5 -1.29895 -2.236584 -1.767767 -1.767767 
C -2.236584 -1.29895 -2.5 -0.663008 -2.5 0 
C -2.5 0.663008 -2.236584 1.29895 -1.767767 1.767767 
C -1.29895 2.236584 -0.663008 2.5 0 2.5 
z
" style="stroke: #1b4f72"/>
    </defs>
    <g clip-path="url(#p38c54ed2ba)">
     <use xlink:href="#m69bf4131dd" x="395.687643" y="36.75267" style="fill: #1b4f72; stroke: #1b4f72"/>
     <use xlink:href="#m69bf4131dd" x="384.646035" y="71.534489" style="fill: #1b4f72; stroke: #1b4f72"/>
     <use xlink:href="#m69bf4131dd" x="370.449683" y="106.316307" style="fill: #1b4f72; stroke: #1b4f72"/>
     <use xlink:href="#m69bf4131dd" x="319.973763" y="141.098125" style="fill: #1b4f72; stroke: #1b4f72"/>
     <use xlink:href="#m69bf4131dd" x="286.84894" y="175.879943" style="fill: #1b4f72; stroke: #1b4f72"/>
     <use xlink:href="#m69bf4131dd" x="280.53945" y="210.661761" style="fill: #1b4f72; stroke: #1b4f72"/>
     <use xlink:href="#m69bf4131dd" x="219.021923" y="245.44358" style="fill: #1b4f72; stroke: #1b4f72"/>
    </g>
   </g>
   <g id="patch_3">
    <path d="M 130.689063 255.878125 
L 130.689063 26.318125 
" style="fill: none; stroke: #000000; stroke-width: 0.8; stroke-linejoin: miter; stroke-linecap: square"/>
   </g>
   <g id="patch_4">
    <path d="M 130.689063 255.878125 
L 446.163563 255.878125 
" style="fill: none; stroke: #000000; stroke-width: 0.8; stroke-linejoin: miter; stroke-linecap: square"/>
   </g>
   <g id="text_18">
    <!-- 96.8 [95.6, 98.0] -->
    <g style="fill: #222222" transform="translate(420.136916 38.96017) scale(0.08 -0.08)">
     <defs>
      <path id="DejaVuSans-Bold-36" d="M 2316 2303 
Q 2000 2303 1842 2098 
Q 1684 1894 1684 1484 
Q 1684 1075 1842 870 
Q 2000 666 2316 666 
Q 2634 666 2792 870 
Q 2950 1075 2950 1484 
Q 2950 1894 2792 2098 
Q 2634 2303 2316 2303 
z
M 3803 4544 
L 3803 3681 
Q 3506 3822 3243 3889 
Q 2981 3956 2731 3956 
Q 2194 3956 1894 3657 
Q 1594 3359 1544 2772 
Q 1750 2925 1990 3001 
Q 2231 3078 2516 3078 
Q 3231 3078 3670 2659 
Q 4109 2241 4109 1563 
Q 4109 813 3618 361 
Q 3128 -91 2303 -91 
Q 1394 -91 895 523 
Q 397 1138 397 2266 
Q 397 3422 980 4083 
Q 1563 4744 2578 4744 
Q 2900 4744 3203 4694 
Q 3506 4644 3803 4544 
z
" transform="scale(0.015625)"/>
      <path id="DejaVuSans-Bold-5b" d="M 550 4863 
L 2491 4863 
L 2491 4159 
L 1613 4159 
L 1613 -141 
L 2491 -141 
L 2491 -844 
L 550 -844 
L 550 4863 
z
" transform="scale(0.015625)"/>
      <path id="DejaVuSans-Bold-2c" d="M 653 1209 
L 1778 1209 
L 1778 256 
L 1006 -909 
L 341 -909 
L 653 256 
L 653 1209 
z
" transform="scale(0.015625)"/>
      <path id="DejaVuSans-Bold-5d" d="M 2375 -844 
L 434 -844 
L 434 -141 
L 1313 -141 
L 1313 4159 
L 434 4159 
L 434 4863 
L 2375 4863 
L 2375 -844 
z
" transform="scale(0.015625)"/>
     </defs>
     <use xlink:href="#DejaVuSans-Bold-39"/>
     <use xlink:href="#DejaVuSans-Bold-36" transform="translate(69.580078 0)"/>
     <use xlink:href="#DejaVuSans-Bold-2e" transform="translate(139.160156 0)"/>
     <use xlink:href="#DejaVuSans-Bold-38" transform="translate(177.148438 0)"/>
     <use xlink:href="#DejaVuSans-Bold-20" transform="translate(246.728516 0)"/>
     <use xlink:href="#DejaVuSans-Bold-5b" transform="translate(281.542969 0)"/>
     <use xlink:href="#DejaVuSans-Bold-39" transform="translate(327.246094 0)"/>
     <use xlink:href="#DejaVuSans-Bold-35" transform="translate(396.826172 0)"/>
     <use xlink:href="#DejaVuSans-Bold-2e" transform="translate(466.40625 0)"/>
     <use xlink:href="#DejaVuSans-Bold-36" transform="translate(504.394531 0)"/>
     <use xlink:href="#DejaVuSans-Bold-2c" transform="translate(573.974609 0)"/>
     <use xlink:href="#DejaVuSans-Bold-20" transform="translate(611.962891 0)"/>
     <use xlink:href="#DejaVuSans-Bold-39" transform="translate(646.777344 0)"/>
     <use xlink:href="#DejaVuSans-Bold-38" transform="translate(716.357422 0)"/>
     <use xlink:href="#DejaVuSans-Bold-2e" transform="translate(785.9375 0)"/>
     <use xlink:href="#DejaVuSans-Bold-30" transform="translate(823.925781 0)"/>
     <use xlink:href="#DejaVuSans-Bold-5d" transform="translate(893.505859 0)"/>
    </g>
   </g>
   <g id="text_19">
    <!-- 96.1 [94.9, 97.3] -->
    <g style="fill: #222222" transform="translate(409.095309 73.741989) scale(0.08 -0.08)">
     <defs>
      <path id="DejaVuSans-Bold-34" d="M 2356 3675 
L 1038 1722 
L 2356 1722 
L 2356 3675 
z
M 2156 4666 
L 3494 4666 
L 3494 1722 
L 4159 1722 
L 4159 850 
L 3494 850 
L 3494 0 
L 2356 0 
L 2356 850 
L 288 850 
L 288 1881 
L 2156 4666 
z
" transform="scale(0.015625)"/>
      <path id="DejaVuSans-Bold-33" d="M 2981 2516 
Q 3453 2394 3698 2092 
Q 3944 1791 3944 1325 
Q 3944 631 3412 270 
Q 2881 -91 1863 -91 
Q 1503 -91 1142 -33 
Q 781 25 428 141 
L 428 1069 
Q 766 900 1098 814 
Q 1431 728 1753 728 
Q 2231 728 2486 893 
Q 2741 1059 2741 1369 
Q 2741 1688 2480 1852 
Q 2219 2016 1709 2016 
L 1228 2016 
L 1228 2791 
L 1734 2791 
Q 2188 2791 2409 2933 
Q 2631 3075 2631 3366 
Q 2631 3634 2415 3781 
Q 2200 3928 1806 3928 
Q 1516 3928 1219 3862 
Q 922 3797 628 3669 
L 628 4550 
Q 984 4650 1334 4700 
Q 1684 4750 2022 4750 
Q 2931 4750 3382 4451 
Q 3834 4153 3834 3553 
Q 3834 3144 3618 2883 
Q 3403 2622 2981 2516 
z
" transform="scale(0.015625)"/>
     </defs>
     <use xlink:href="#DejaVuSans-Bold-39"/>
     <use xlink:href="#DejaVuSans-Bold-36" transform="translate(69.580078 0)"/>
     <use xlink:href="#DejaVuSans-Bold-2e" transform="translate(139.160156 0)"/>
     <use xlink:href="#DejaVuSans-Bold-31" transform="translate(177.148438 0)"/>
     <use xlink:href="#DejaVuSans-Bold-20" transform="translate(246.728516 0)"/>
     <use xlink:href="#DejaVuSans-Bold-5b" transform="translate(281.542969 0)"/>
     <use xlink:href="#DejaVuSans-Bold-39" transform="translate(327.246094 0)"/>
     <use xlink:href="#DejaVuSans-Bold-34" transform="translate(396.826172 0)"/>
     <use xlink:href="#DejaVuSans-Bold-2e" transform="translate(466.40625 0)"/>
     <use xlink:href="#DejaVuSans-Bold-39" transform="translate(504.394531 0)"/>
     <use xlink:href="#DejaVuSans-Bold-2c" transform="translate(573.974609 0)"/>
     <use xlink:href="#DejaVuSans-Bold-20" transform="translate(611.962891 0)"/>
     <use xlink:href="#DejaVuSans-Bold-39" transform="translate(646.777344 0)"/>
     <use xlink:href="#DejaVuSans-Bold-37" transform="translate(716.357422 0)"/>
     <use xlink:href="#DejaVuSans-Bold-2e" transform="translate(785.9375 0)"/>
     <use xlink:href="#DejaVuSans-Bold-33" transform="translate(823.925781 0)"/>
     <use xlink:href="#DejaVuSans-Bold-5d" transform="translate(893.505859 0)"/>
    </g>
   </g>
   <g id="text_20">
    <!-- 95.2 [93.8, 96.6] -->
    <g style="fill: #222222" transform="translate(398.053701 108.523807) scale(0.08 -0.08)">
     <use xlink:href="#DejaVuSans-Bold-39"/>
     <use xlink:href="#DejaVuSans-Bold-35" transform="translate(69.580078 0)"/>
     <use xlink:href="#DejaVuSans-Bold-2e" transform="translate(139.160156 0)"/>
     <use xlink:href="#DejaVuSans-Bold-32" transform="translate(177.148438 0)"/>
     <use xlink:href="#DejaVuSans-Bold-20" transform="translate(246.728516 0)"/>
     <use xlink:href="#DejaVuSans-Bold-5b" transform="translate(281.542969 0)"/>
     <use xlink:href="#DejaVuSans-Bold-39" transform="translate(327.246094 0)"/>
     <use xlink:href="#DejaVuSans-Bold-33" transform="translate(396.826172 0)"/>
     <use xlink:href="#DejaVuSans-Bold-2e" transform="translate(466.40625 0)"/>
     <use xlink:href="#DejaVuSans-Bold-38" transform="translate(504.394531 0)"/>
     <use xlink:href="#DejaVuSans-Bold-2c" transform="translate(573.974609 0)"/>
     <use xlink:href="#DejaVuSans-Bold-20" transform="translate(611.962891 0)"/>
     <use xlink:href="#DejaVuSans-Bold-39" transform="translate(646.777344 0)"/>
     <use xlink:href="#DejaVuSans-Bold-36" transform="translate(716.357422 0)"/>
     <use xlink:href="#DejaVuSans-Bold-2e" transform="translate(785.9375 0)"/>
     <use xlink:href="#DejaVuSans-Bold-36" transform="translate(823.925781 0)"/>
     <use xlink:href="#DejaVuSans-Bold-5d" transform="translate(893.505859 0)"/>
    </g>
   </g>
   <g id="text_21">
    <!-- 92.0 [90.5, 93.5] -->
    <g style="fill: #222222" transform="translate(349.155154 143.305625) scale(0.08 -0.08)">
     <use xlink:href="#DejaVuSans-Bold-39"/>
     <use xlink:href="#DejaVuSans-Bold-32" transform="translate(69.580078 0)"/>
     <use xlink:href="#DejaVuSans-Bold-2e" transform="translate(139.160156 0)"/>
     <use xlink:href="#DejaVuSans-Bold-30" transform="translate(177.148438 0)"/>
     <use xlink:href="#DejaVuSans-Bold-20" transform="translate(246.728516 0)"/>
     <use xlink:href="#DejaVuSans-Bold-5b" transform="translate(281.542969 0)"/>
     <use xlink:href="#DejaVuSans-Bold-39" transform="translate(327.246094 0)"/>
     <use xlink:href="#DejaVuSans-Bold-30" transform="translate(396.826172 0)"/>
     <use xlink:href="#DejaVuSans-Bold-2e" transform="translate(466.40625 0)"/>
     <use xlink:href="#DejaVuSans-Bold-35" transform="translate(504.394531 0)"/>
     <use xlink:href="#DejaVuSans-Bold-2c" transform="translate(573.974609 0)"/>
     <use xlink:href="#DejaVuSans-Bold-20" transform="translate(611.962891 0)"/>
     <use xlink:href="#DejaVuSans-Bold-39" transform="translate(646.777344 0)"/>
     <use xlink:href="#DejaVuSans-Bold-33" transform="translate(716.357422 0)"/>
     <use xlink:href="#DejaVuSans-Bold-2e" transform="translate(785.9375 0)"/>
     <use xlink:href="#DejaVuSans-Bold-35" transform="translate(823.925781 0)"/>
     <use xlink:href="#DejaVuSans-Bold-5d" transform="translate(893.505859 0)"/>
    </g>
   </g>
   <g id="text_22">
    <!-- 89.9 [88.1, 91.7] -->
    <g style="fill: #222222" transform="translate(320.762449 178.087443) scale(0.08 -0.08)">
     <use xlink:href="#DejaVuSans-Bold-38"/>
     <use xlink:href="#DejaVuSans-Bold-39" transform="translate(69.580078 0)"/>
     <use xlink:href="#DejaVuSans-Bold-2e" transform="translate(139.160156 0)"/>
     <use xlink:href="#DejaVuSans-Bold-39" transform="translate(177.148438 0)"/>
     <use xlink:href="#DejaVuSans-Bold-20" transform="translate(246.728516 0)"/>
     <use xlink:href="#DejaVuSans-Bold-5b" transform="translate(281.542969 0)"/>
     <use xlink:href="#DejaVuSans-Bold-38" transform="translate(327.246094 0)"/>
     <use xlink:href="#DejaVuSans-Bold-38" transform="translate(396.826172 0)"/>
     <use xlink:href="#DejaVuSans-Bold-2e" transform="translate(466.40625 0)"/>
     <use xlink:href="#DejaVuSans-Bold-31" transform="translate(504.394531 0)"/>
     <use xlink:href="#DejaVuSans-Bold-2c" transform="translate(573.974609 0)"/>
     <use xlink:href="#DejaVuSans-Bold-20" transform="translate(611.962891 0)"/>
     <use xlink:href="#DejaVuSans-Bold-39" transform="translate(646.777344 0)"/>
     <use xlink:href="#DejaVuSans-Bold-31" transform="translate(716.357422 0)"/>
     <use xlink:href="#DejaVuSans-Bold-2e" transform="translate(785.9375 0)"/>
     <use xlink:href="#DejaVuSans-Bold-37" transform="translate(823.925781 0)"/>
     <use xlink:href="#DejaVuSans-Bold-5d" transform="translate(893.505859 0)"/>
    </g>
   </g>
   <g id="text_23">
    <!-- 89.5 [87.8, 91.2] -->
    <g style="fill: #222222" transform="translate(312.875586 212.869261) scale(0.08 -0.08)">
     <use xlink:href="#DejaVuSans-Bold-38"/>
     <use xlink:href="#DejaVuSans-Bold-39" transform="translate(69.580078 0)"/>
     <use xlink:href="#DejaVuSans-Bold-2e" transform="translate(139.160156 0)"/>
     <use xlink:href="#DejaVuSans-Bold-35" transform="translate(177.148438 0)"/>
     <use xlink:href="#DejaVuSans-Bold-20" transform="translate(246.728516 0)"/>
     <use xlink:href="#DejaVuSans-Bold-5b" transform="translate(281.542969 0)"/>
     <use xlink:href="#DejaVuSans-Bold-38" transform="translate(327.246094 0)"/>
     <use xlink:href="#DejaVuSans-Bold-37" transform="translate(396.826172 0)"/>
     <use xlink:href="#DejaVuSans-Bold-2e" transform="translate(466.40625 0)"/>
     <use xlink:href="#DejaVuSans-Bold-38" transform="translate(504.394531 0)"/>
     <use xlink:href="#DejaVuSans-Bold-2c" transform="translate(573.974609 0)"/>
     <use xlink:href="#DejaVuSans-Bold-20" transform="translate(611.962891 0)"/>
     <use xlink:href="#DejaVuSans-Bold-39" transform="translate(646.777344 0)"/>
     <use xlink:href="#DejaVuSans-Bold-31" transform="translate(716.357422 0)"/>
     <use xlink:href="#DejaVuSans-Bold-2e" transform="translate(785.9375 0)"/>
     <use xlink:href="#DejaVuSans-Bold-32" transform="translate(823.925781 0)"/>
     <use xlink:href="#DejaVuSans-Bold-5d" transform="translate(893.505859 0)"/>
    </g>
   </g>
   <g id="text_24">
    <!-- 85.6 [83.5, 87.7] -->
    <g style="fill: #222222" transform="translate(257.667549 247.65108) scale(0.08 -0.08)">
     <use xlink:href="#DejaVuSans-Bold-38"/>
     <use xlink:href="#DejaVuSans-Bold-35" transform="translate(69.580078 0)"/>
     <use xlink:href="#DejaVuSans-Bold-2e" transform="translate(139.160156 0)"/>
     <use xlink:href="#DejaVuSans-Bold-36" transform="translate(177.148438 0)"/>
     <use xlink:href="#DejaVuSans-Bold-20" transform="translate(246.728516 0)"/>
     <use xlink:href="#DejaVuSans-Bold-5b" transform="translate(281.542969 0)"/>
     <use xlink:href="#DejaVuSans-Bold-38" transform="translate(327.246094 0)"/>
     <use xlink:href="#DejaVuSans-Bold-33" transform="translate(396.826172 0)"/>
     <use xlink:href="#DejaVuSans-Bold-2e" transform="translate(466.40625 0)"/>
     <use xlink:href="#DejaVuSans-Bold-35" transform="translate(504.394531 0)"/>
     <use xlink:href="#DejaVuSans-Bold-2c" transform="translate(573.974609 0)"/>
     <use xlink:href="#DejaVuSans-Bold-20" transform="translate(611.962891 0)"/>
     <use xlink:href="#DejaVuSans-Bold-38" transform="translate(646.777344 0)"/>
     <use xlink:href="#DejaVuSans-Bold-37" transform="translate(716.357422 0)"/>
     <use xlink:href="#DejaVuSans-Bold-2e" transform="translate(785.9375 0)"/>
     <use xlink:href="#DejaVuSans-Bold-37" transform="translate(823.925781 0)"/>
     <use xlink:href="#DejaVuSans-Bold-5d" transform="translate(893.505859 0)"/>
    </g>
   </g>
   <g id="text_25">
    <!-- Figure 6. Repeated CV Confidence Intervals -->
    <g transform="translate(140.682875 16.318125) scale(0.12 -0.12)">
     <defs>
      <path id="DejaVuSans-Bold-70" d="M 1656 506 
L 1656 -1331 
L 538 -1331 
L 538 3500 
L 1656 3500 
L 1656 2988 
Q 1888 3294 2169 3439 
Q 2450 3584 2816 3584 
Q 3463 3584 3878 3070 
Q 4294 2556 4294 1747 
Q 4294 938 3878 423 
Q 3463 -91 2816 -91 
Q 2450 -91 2169 54 
Q 1888 200 1656 506 
z
M 2400 2772 
Q 2041 2772 1848 2508 
Q 1656 2244 1656 1747 
Q 1656 1250 1848 986 
Q 2041 722 2400 722 
Q 2759 722 2948 984 
Q 3138 1247 3138 1747 
Q 3138 2247 2948 2509 
Q 2759 2772 2400 2772 
z
" transform="scale(0.015625)"/>
      <path id="DejaVuSans-Bold-49" d="M 588 4666 
L 1791 4666 
L 1791 0 
L 588 0 
L 588 4666 
z
" transform="scale(0.015625)"/>
      <path id="DejaVuSans-Bold-76" d="M 97 3500 
L 1216 3500 
L 2088 1081 
L 2956 3500 
L 4078 3500 
L 2700 0 
L 1472 0 
L 97 3500 
z
" transform="scale(0.015625)"/>
     </defs>
     <use xlink:href="#DejaVuSans-Bold-46"/>
     <use xlink:href="#DejaVuSans-Bold-69" transform="translate(68.310547 0)"/>
     <use xlink:href="#DejaVuSans-Bold-67" transform="translate(102.587891 0)"/>
     <use xlink:href="#DejaVuSans-Bold-75" transform="translate(174.169922 0)"/>
     <use xlink:href="#DejaVuSans-Bold-72" transform="translate(245.361328 0)"/>
     <use xlink:href="#DejaVuSans-Bold-65" transform="translate(294.677734 0)"/>
     <use xlink:href="#DejaVuSans-Bold-20" transform="translate(362.5 0)"/>
     <use xlink:href="#DejaVuSans-Bold-36" transform="translate(397.314453 0)"/>
     <use xlink:href="#DejaVuSans-Bold-2e" transform="translate(466.894531 0)"/>
     <use xlink:href="#DejaVuSans-Bold-20" transform="translate(504.882812 0)"/>
     <use xlink:href="#DejaVuSans-Bold-52" transform="translate(539.697266 0)"/>
     <use xlink:href="#DejaVuSans-Bold-65" transform="translate(616.699219 0)"/>
     <use xlink:href="#DejaVuSans-Bold-70" transform="translate(684.521484 0)"/>
     <use xlink:href="#DejaVuSans-Bold-65" transform="translate(756.103516 0)"/>
     <use xlink:href="#DejaVuSans-Bold-61" transform="translate(823.925781 0)"/>
     <use xlink:href="#DejaVuSans-Bold-74" transform="translate(891.40625 0)"/>
     <use xlink:href="#DejaVuSans-Bold-65" transform="translate(939.208984 0)"/>
     <use xlink:href="#DejaVuSans-Bold-64" transform="translate(1007.03125 0)"/>
     <use xlink:href="#DejaVuSans-Bold-20" transform="translate(1078.613281 0)"/>
     <use xlink:href="#DejaVuSans-Bold-43" transform="translate(1113.427734 0)"/>
     <use xlink:href="#DejaVuSans-Bold-56" transform="translate(1186.816406 0)"/>
     <use xlink:href="#DejaVuSans-Bold-20" transform="translate(1264.208984 0)"/>
     <use xlink:href="#DejaVuSans-Bold-43" transform="translate(1299.023438 0)"/>
     <use xlink:href="#DejaVuSans-Bold-6f" transform="translate(1372.412109 0)"/>
     <use xlink:href="#DejaVuSans-Bold-6e" transform="translate(1441.113281 0)"/>
     <use xlink:href="#DejaVuSans-Bold-66" transform="translate(1512.304688 0)"/>
     <use xlink:href="#DejaVuSans-Bold-69" transform="translate(1555.810547 0)"/>
     <use xlink:href="#DejaVuSans-Bold-64" transform="translate(1590.087891 0)"/>
     <use xlink:href="#DejaVuSans-Bold-65" transform="translate(1661.669922 0)"/>
     <use xlink:href="#DejaVuSans-Bold-6e" transform="translate(1729.492188 0)"/>
     <use xlink:href="#DejaVuSans-Bold-63" transform="translate(1800.683594 0)"/>
     <use xlink:href="#DejaVuSans-Bold-65" transform="translate(1859.960938 0)"/>
     <use xlink:href="#DejaVuSans-Bold-20" transform="translate(1927.783203 0)"/>
     <use xlink:href="#DejaVuSans-Bold-49" transform="translate(1962.597656 0)"/>
     <use xlink:href="#DejaVuSans-Bold-6e" transform="translate(1999.804688 0)"/>
     <use xlink:href="#DejaVuSans-Bold-74" transform="translate(2070.996094 0)"/>
     <use xlink:href="#DejaVuSans-Bold-65" transform="translate(2118.798828 0)"/>
     <use xlink:href="#DejaVuSans-Bold-72" transform="translate(2186.621094 0)"/>
     <use xlink:href="#DejaVuSans-Bold-76" transform="translate(2235.9375 0)"/>
     <use xlink:href="#DejaVuSans-Bold-61" transform="translate(2301.123047 0)"/>
     <use xlink:href="#DejaVuSans-Bold-6c" transform="translate(2368.603516 0)"/>
     <use xlink:href="#DejaVuSans-Bold-73" transform="translate(2402.880859 0)"/>
    </g>
   </g>
  </g>
 </g>
 <defs>
  <clipPath id="p38c54ed2ba">
   <rect x="130.689063" y="26.318125" width="315.4745" height="229.56"/>
  </clipPath>
 </defs>
</svg>
