<svg xmlns="http://www.w3.org/2000/svg" width="1200" height="620" viewBox="0 0 1200 620">
  <title>Literature Bar Comparison</title>
  <desc>Source: outputs/tables/literature_comparison_matrix.csv. Total qualitative capability score by approach.</desc>
  <rect width="1200" height="620" fill="#ffffff"/>
  <text x="60" y="60" font-family="DejaVu Sans, Arial, sans-serif" font-size="28" font-weight="700" fill="#133c55">Integrated Capability Comparison Across Approaches</text>
  <text x="60" y="90" font-family="DejaVu Sans, Arial, sans-serif" font-size="16" fill="#4a5568">Higher bars indicate broader end-to-end capability coverage, not measured performance.</text>
  <line x1="90" y1="520" x2="1110" y2="520" stroke="#334e68" stroke-width="2"/>
  <line x1="90" y1="140" x2="90" y2="520" stroke="#334e68" stroke-width="2"/>
  <g font-family="DejaVu Sans, Arial, sans-serif" font-size="14" fill="#486581">
    <text x="60" y="520">0</text>
    <text x="48" y="445">5</text>
    <text x="40" y="370">10</text>
    <text x="40" y="295">15</text>
    <text x="40" y="220">20</text>
    <text x="40" y="145">25</text>
    <line x1="90" y1="445" x2="1110" y2="445" stroke="#d9e2ec"/>
    <line x1="90" y1="370" x2="1110" y2="370" stroke="#d9e2ec"/>
    <line x1="90" y1="295" x2="1110" y2="295" stroke="#d9e2ec"/>
    <line x1="90" y1="220" x2="1110" y2="220" stroke="#d9e2ec"/>
    <line x1="90" y1="145" x2="1110" y2="145" stroke="#d9e2ec"/>
  </g>
  <g font-family="DejaVu Sans, Arial, sans-serif" font-size="14" text-anchor="middle">
    <rect x="130" y="355" width="70" height="165" fill="#5c677d"/><text x="165" y="545">A1</text><text x="165" y="347">9</text>
    <rect x="250" y="310" width="70" height="210" fill="#5c677d"/><text x="285" y="545">A2</text><text x="285" y="302">12</text>
    <rect x="370" y="310" width="70" height="210" fill="#5c677d"/><text x="405" y="545">A3</text><text x="405" y="302">12</text>
    <rect x="490" y="280" width="70" height="240" fill="#5c677d"/><text x="525" y="545">A4</text><text x="525" y="272">14</text>
    <rect x="610" y="340" width="70" height="180" fill="#5c677d"/><text x="645" y="545">A5</text><text x="645" y="332">10</text>
    <rect x="730" y="250" width="70" height="270" fill="#5c677d"/><text x="765" y="545">A6</text><text x="765" y="242">15</text>
    <rect x="850" y="160" width="70" height="360" fill="#5c677d"/><text x="885" y="545">A7</text><text x="885" y="152">20</text>
    <rect x="970" y="70" width="70" height="450" fill="#2a9d8f"/><text x="1005" y="545">A8</text><text x="1005" y="62">30</text>
  </g>
  <text x="1145" y="330" transform="rotate(-90 1145,330)" font-family="DejaVu Sans, Arial, sans-serif" font-size="18" fill="#334e68">Total qualitative capability score</text>
</svg>
